<svg width="50" height="24" viewBox="0 0 50 24" fill="none" xmlns="http://www.w3.org/2000/svg">
<g clip-path="url(#clip0_9_236)">
<path d="M379.558 0.5H153.878C125.128 0.5 99.1077 1.84266 80.2827 4.01143C70.8669 5.0962 63.2692 6.38568 58.0346 7.81148C55.4134 8.52545 53.4134 9.26613 52.0792 10.0173C51.4119 10.393 50.9353 10.7581 50.6306 11.1037C50.3287 11.4462 50.2178 11.7428 50.2178 12C50.2178 12.2572 50.3287 12.5538 50.6306 12.8963C50.9353 13.242 51.4119 13.607 52.0792 13.9827C53.4134 14.7339 55.4134 15.4746 58.0346 16.1885C63.2692 17.6143 70.8669 18.9038 80.2827 19.9886C99.1077 22.1573 125.128 23.5 153.878 23.5H379.558C408.308 23.5 434.328 22.1573 453.153 19.9886C462.569 18.9038 470.166 17.6143 475.401 16.1885C478.022 15.4746 480.022 14.7339 481.356 13.9827C482.024 13.607 482.5 13.2419 482.805 12.8963C483.107 12.5538 483.218 12.2572 483.218 12C483.218 11.7428 483.107 11.4462 482.805 11.1037C482.5 10.7581 482.024 10.393 481.356 10.0173C480.022 9.26613 478.022 8.52545 475.401 7.81148C470.166 6.38568 462.569 5.0962 453.153 4.01143C434.328 1.84266 408.308 0.5 379.558 0.5Z" stroke="#ACACAC"/>
<path d="M254.898 2.71924C126.371 2.71924 22.1787 6.87438 22.1787 12C22.1787 17.1256 126.371 21.2808 254.898 21.2808C383.425 21.2808 487.617 17.1256 487.617 12C487.617 6.87438 383.425 2.71924 254.898 2.71924Z" fill="#ACACAC"/>
</g>
<defs>
<clipPath id="clip0_9_236">
<rect width="50" height="24" fill="white"/>
</clipPath>
</defs>
</svg>
