<svg id="Layer_1" enable-background="new 0 0 512 512" viewBox="0 0 512 512" xmlns="http://www.w3.org/2000/svg"><g id="Layer_2_00000094609297814540121230000005612619014390565772_"><g id="Layer_1_copy_15"><g id="_4"><path d="m256 91.2c42.4 0 87.3 17.4 133.3 51.7 40.4 30.1 73.2 66.9 93.5 92.5 9.7 12.1 9.7 29.2 0 41.3-20.4 25.6-53.1 62.4-93.5 92.5-46 34.3-90.9 51.6-133.3 51.6s-87.3-17.4-133.3-51.6c-40.4-30.1-73.2-66.9-93.5-92.5-9.7-12.1-9.7-29.2 0-41.3 20.4-25.6 53.1-62.4 93.5-92.5 46-34.3 90.9-51.7 133.3-51.7m0 273.6c60.1 0 108.8-48.7 108.8-108.8s-48.7-108.8-108.8-108.8-108.8 48.7-108.8 108.8c.1 60.1 48.7 108.7 108.8 108.8m0-295.5c-108 0-201.1 98.5-244 152.4-16 20.1-16 48.5 0 68.6 42.9 53.9 136 152.4 244 152.4s201.1-98.5 244-152.4c16-20.1 16-48.5 0-68.6-42.9-53.9-136-152.4-244-152.4zm0 273.6c-48 0-86.9-38.9-86.9-86.9s38.9-86.9 86.9-86.9 86.9 38.9 86.9 86.9c0 48-38.9 86.9-86.9 86.9z"/></g></g></g></svg>