<svg id="Layer_1" enable-background="new 0 0 100 100" viewBox="0 0 100 100" xmlns="http://www.w3.org/2000/svg"><g><path d="m64.471 68.519c-5.038 7.424-13.889 11.856-23.675 11.856-3.956 0-7.746-.719-11.267-2.137-.426-.171-.904-.151-1.314.054l-13.245 6.631 5.213-11.276c.279-.603.155-1.316-.31-1.791-4.303-4.389-6.673-10.023-6.673-15.865 0-7.774 4.256-15.152 11.386-19.736.744-.478.959-1.467.481-2.211-.479-.744-1.47-.961-2.211-.481-8.05 5.176-12.856 13.56-12.856 22.428 0 6.329 2.415 12.429 6.824 17.296l-6.676 14.443c-.285.617-.149 1.347.339 1.82.305.295.707.45 1.113.45.244 0 .489-.056.716-.169l16.696-8.36c3.709 1.396 7.669 2.104 11.784 2.104 10.849 0 20.689-4.956 26.323-13.258.496-.731.306-1.726-.425-2.223-.729-.495-1.727-.306-2.223.425z"/><path d="m83.18 54.894c4.406-4.881 6.82-10.985 6.82-17.304 0-15.213-13.817-27.59-30.803-27.59s-30.802 12.377-30.802 27.59 13.818 27.59 30.802 27.59c4.1 0 8.064-.706 11.792-2.101l16.694 8.356c.228.114.473.169.716.169.406 0 .807-.155 1.114-.451.488-.473.624-1.203.339-1.82zm-11.39 5.007c-.225-.112-.47-.169-.716-.169-.201 0-.403.038-.594.114-3.545 1.416-7.341 2.134-11.283 2.134-15.22 0-27.602-10.941-27.602-24.39s12.383-24.39 27.602-24.39 27.603 10.941 27.603 24.39c0 5.833-2.369 11.472-6.67 15.878-.464.474-.586 1.186-.307 1.789l5.209 11.272z"/></g></svg>