<svg fill="none" height="24" viewBox="0 0 24 24" width="24" xmlns="http://www.w3.org/2000/svg"><path clip-rule="evenodd" d="m12 11c2.7614 0 5-2.23858 5-5s-2.2386-5-5-5c-2.76142 0-5 2.23858-5 5s2.23858 5 5 5zm4-5c0 2.20914-1.7909 4-4 4-2.20914 0-4-1.79086-4-4s1.79086-4 4-4c2.2091 0 4 1.79086 4 4zm5 14c0-3.866-3.134-7-7-7h-4c-3.86599 0-7 3.134-7 7 0 1.6569 1.34315 3 3 3h12c1.6569 0 3-1.3431 3-3zm-17 0c0-3.3137 2.68629-6 6-6h4c3.3137 0 6 2.6863 6 6 0 1.1046-.8954 2-2 2h-12c-1.10457 0-2-.8954-2-2z" fill="rgb(0,0,0)" fill-rule="evenodd"/></svg>