<svg width="22" height="24" viewBox="0 0 22 24" fill="none" xmlns="http://www.w3.org/2000/svg">
<path fill-rule="evenodd" clip-rule="evenodd" d="M15.8358 23.9654H2.01704C1.13615 23.9654 0.434204 23.2497 0.434204 22.3826V4.70994C0.434204 3.82906 1.13615 3.12711 2.01704 3.12711H5.34787C5.43045 2.27375 6.1324 1.61309 6.99951 1.61309H7.59135L7.81158 0.690923C7.8391 0.553286 7.94922 0.470703 8.08685 0.470703H9.75227C9.87614 0.470703 9.98625 0.553286 10.0138 0.677159L10.234 1.61309H10.8396C11.7067 1.61309 12.4087 2.27375 12.4912 3.12711H15.8358C16.703 3.12711 17.4049 3.82906 17.4049 4.69617V10.0916L19.1116 8.38486C19.6484 7.86184 20.5018 7.86184 21.0248 8.38486C21.5478 8.90788 21.5478 9.775 21.0248 10.298L17.4049 13.9179V22.3826C17.4049 23.2497 16.703 23.9654 15.8358 23.9654ZM12.0921 16.9321L18.9877 10.0365L18.6161 9.66489L11.7205 16.5605L12.0921 16.9321ZM19.3731 10.4219L12.4912 17.3175L12.8491 17.6892L19.7447 10.7935L19.3731 10.4219ZM19.0015 9.2795L20.1301 10.4081L20.6394 9.91264C20.9422 9.59607 20.9422 9.08681 20.6394 8.77025C20.3228 8.46744 19.8136 8.46744 19.5108 8.77025L19.0015 9.2795ZM10.2065 18.7352L11.0461 16.5605H4.30182C4.15042 16.5605 4.02654 16.4367 4.02654 16.2853C4.02654 16.1339 4.15042 16.01 4.30182 16.01H11.5003L16.8544 10.6421V4.70994C16.8544 4.13186 16.4002 3.67766 15.8358 3.67766H12.45C12.2573 4.39337 11.6104 4.93016 10.8396 4.93016H6.99951C6.22874 4.93016 5.58186 4.39337 5.40292 3.67766H2.01704C1.43896 3.67766 0.984756 4.13186 0.984756 4.69617V22.3826C0.984756 22.9469 1.43896 23.4149 2.01704 23.4149H15.8358C16.4002 23.4149 16.8544 22.9469 16.8544 22.3826V14.4684L13.0556 18.2672C13.0143 18.3085 12.973 18.3361 12.9317 18.3361L11.8856 18.7352H13.5373C13.6887 18.7352 13.8126 18.8728 13.8126 19.0105C13.8126 19.1619 13.6887 19.2857 13.5373 19.2857H10.3992H10.3854H4.30182C4.15042 19.2857 4.02654 19.1619 4.02654 19.0105C4.02654 18.8728 4.15042 18.7352 4.30182 18.7352H10.2065ZM11.4452 17.056L10.8671 18.5425L12.3536 17.9782L11.8994 17.5102L11.4452 17.056ZM13.5373 13.8215H4.30182C4.15042 13.8215 4.02654 13.6977 4.02654 13.5463C4.02654 13.3949 4.15042 13.271 4.30182 13.271H13.5373C13.6887 13.271 13.8126 13.3949 13.8126 13.5463C13.8126 13.6977 13.6887 13.8215 13.5373 13.8215ZM13.5373 11.0826H4.30182C4.15042 11.0826 4.02654 10.9587 4.02654 10.8073C4.02654 10.6559 4.15042 10.532 4.30182 10.532H13.5373C13.6887 10.532 13.8126 10.6559 13.8126 10.8073C13.8126 10.9587 13.6887 11.0826 13.5373 11.0826ZM13.5373 8.34357H4.30182C4.15042 8.34357 4.02654 8.21969 4.02654 8.06829C4.02654 7.91689 4.15042 7.79302 4.30182 7.79302H13.5373C13.6887 7.79302 13.8126 7.91689 13.8126 8.06829C13.8126 8.21969 13.6887 8.34357 13.5373 8.34357ZM7.46748 2.16364H6.99951C6.39391 2.16364 5.89841 2.65914 5.89841 3.26474C5.89841 3.88411 6.39391 4.37961 6.99951 4.37961H10.8396C11.4452 4.37961 11.9407 3.88411 11.9407 3.26474C11.9407 2.65914 11.4452 2.16364 10.8396 2.16364H10.3579L10.4267 2.45268C10.4542 2.53527 10.4267 2.61785 10.3854 2.68667C10.3303 2.75549 10.2478 2.79678 10.1652 2.79678H7.66018C7.57758 2.79678 7.495 2.75549 7.43996 2.68667C7.39867 2.63161 7.37114 2.53527 7.39867 2.45268L7.46748 2.16364ZM8.00426 2.24623H9.82108L9.53205 1.02125H8.29331L8.00426 2.24623Z" fill="black"/>
</svg>
