<svg xmlns="http://www.w3.org/2000/svg" version="1.1" xmlns:xlink="http://www.w3.org/1999/xlink" xmlns:svgjs="http://svgjs.com/svgjs" width="512" height="512" x="0" y="0" viewBox="0 0 512.001 512.001" style="enable-background:new 0 0 512 512" xml:space="preserve"><g><path d="M501.761 382.604a34.181 34.181 0 0 0-6.167-4.887l-98.56-76.567a34.906 34.906 0 0 0-24.669-10.24 34.902 34.902 0 0 0-20.945 7.215l-27.695 27.695c-8.588 9.563-23.302 10.355-32.865 1.767a23.211 23.211 0 0 1-3.44-3.862v.698a444.511 444.511 0 0 1-99.258-98.909h.815c-10.992-6.662-14.503-20.973-7.841-31.965a23.278 23.278 0 0 1 5.048-5.853l27.345-27.113a34.21 34.21 0 0 0 7.564-20.945 34.906 34.906 0 0 0-10.24-24.669l-76.567-98.56a35.643 35.643 0 0 0-4.771-6.167A34.911 34.911 0 0 0 104.728 0C58.183 0 .001 54.691.001 122.182a121.612 121.612 0 0 0 11.636 52.364 739.145 739.145 0 0 0 325.818 325.818A121.59 121.59 0 0 0 389.586 512c67.724 0 122.415-58.182 122.415-104.727a34.91 34.91 0 0 0-10.24-24.669zM488.728 409.6c-1.862 31.884-43.753 79.127-98.909 79.127a98.083 98.083 0 0 1-42.24-9.542 21.927 21.927 0 0 0-3.84-1.396A713.77 713.77 0 0 1 34.328 168.378a23.229 23.229 0 0 0-1.513-3.956 98.083 98.083 0 0 1-9.542-42.24c0-56.436 49.455-98.909 81.455-98.909a11.633 11.633 0 0 1 8.262 3.375 12.86 12.86 0 0 1 1.629 2.095l1.28 1.862 76.684 98.56 1.862 2.211a11.642 11.642 0 0 1 3.375 8.262 10.826 10.826 0 0 1-1.629 5.818l-25.949 25.716c-18.763 17.572-19.728 47.027-2.155 65.79l.177.188.931 1.396a466.943 466.943 0 0 0 104.727 104.029l.931.698c18.056 17.514 46.759 17.514 64.815 0l1.28-1.28 26.065-26.298a10.82 10.82 0 0 1 5.353-1.513 11.633 11.633 0 0 1 8.262 3.375l2.211 1.978 98.211 76.102 1.978 1.396c.752.425 1.455.932 2.095 1.513a11.635 11.635 0 0 1 3.607 8.727 22.577 22.577 0 0 0-.002 2.327z" fill="#000000" data-original="#000000"></path></g></svg>